<svg width="246" height="1080" viewBox="0 0 246 1080" fill="none" xmlns="http://www.w3.org/2000/svg">
<path d="M246 0H0V325H246V0Z" fill="#0A104A"/>
<path d="M129 49H117V293H129V49Z" fill="#00B1FF"/>
<path d="M245 164H1V177H245V164Z" fill="#00B1FF"/>
<path d="M204.628 79.7887L31.7314 252.686L40.8134 261.767L213.71 88.8706L204.628 79.7887Z" fill="#00B1FF"/>
<path d="M40.8383 79.828L31.7563 88.9099L204.653 261.807L213.735 252.725L40.8383 79.828Z" fill="#E5E4DF"/>
<path d="M163.93 55.5369L69.7681 281.192L81.6213 286.138L175.783 60.4831L163.93 55.5369Z" fill="#00B1FF"/>
<path d="M12.3611 117.816L7.41699 129.67L233.088 223.793L238.032 211.939L12.3611 117.816Z" fill="#E5E4DF"/>
<path d="M233.362 118.345L7.2334 211.364L12.1195 223.242L238.248 130.223L233.362 118.345Z" fill="#00B1FF"/>
<path d="M82.1706 55.2864L70.2925 60.1725L163.311 286.301L175.189 281.415L82.1706 55.2864Z" fill="#00B1FF"/>
<path d="M246 325H0V593H246V325Z" fill="#ECE7DE"/>
<path d="M205 432H110V592H205V432Z" fill="#00B1FF"/>
<path d="M124.897 351.002C81.0761 351.329 46 387.892 46 431.996V550.417C45.9999 554.533 47.5933 558.488 50.4425 561.442C53.2916 564.396 57.1723 566.117 61.2616 566.241C98.1523 567.35 131.365 570.494 156.545 545.98C186.421 516.894 205 476.127 205 430.992C205 386.612 169.082 350.672 124.897 351.002Z" fill="#00B1FF"/>
<path d="M31.5169 509H52V454L22.8076 499.85C20.0573 504.163 24.6706 509 31.5169 509Z" fill="#00B1FF"/>
<path d="M170.153 393.059C153.553 375.721 134.008 373.072 108.433 373C82.9359 372.928 61.4523 393.197 61.0074 418.971C60.8974 425.188 62.0137 431.364 64.2911 437.139C66.5684 442.915 69.9612 448.174 74.2714 452.61C78.5815 457.045 83.7227 460.568 89.3946 462.973C95.0665 465.378 101.156 466.616 107.306 466.616H142.656C149.948 466.616 156.942 469.545 162.099 474.757C167.256 479.97 170.153 487.04 170.153 494.412V592H190V466.61C190 441.325 186.279 409.905 170.153 393.059Z" fill="#ECE7DE"/>
<path d="M246 592H0V836H246V592Z" fill="#0A104A"/>
<path d="M122.005 624H121.995C71.1876 624 30 664.516 30 714.495V714.505C30 764.484 71.1876 805 121.995 805H122.005C172.812 805 214 764.484 214 714.505V714.495C214 664.516 172.812 624 122.005 624Z" fill="#E5E4DF"/>
<path d="M184 714C184 679.758 156.242 652 122 652C87.7583 652 60 679.758 60 714C60 748.242 87.7583 776 122 776C156.242 776 184 748.242 184 714Z" fill="#00B1FF"/>
<path d="M246 836H0V1080H246V836Z" fill="#00B1FF"/>
<path d="M127 875H117V1041H127V875Z" fill="#0A104A"/>
<path d="M205 956H39V965H205V956Z" fill="#0A104A"/>
<path d="M177.722 895.966L59.9199 1013.77L66.1048 1019.95L183.907 902.151L177.722 895.966Z" fill="#0A104A"/>
<path d="M66.1048 896.077L59.9199 902.262L177.722 1020.06L183.907 1013.88L66.1048 896.077Z" fill="#0A104A"/>
</svg>
