<svg width="49" height="49" viewBox="0 0 49 49" fill="none" xmlns="http://www.w3.org/2000/svg">
<path d="M24.5 0.78125C37.5992 0.78125 48.2188 11.4008 48.2188 24.5C48.2188 37.5992 37.5992 48.2188 24.5 48.2188C11.4008 48.2188 0.78125 37.5992 0.78125 24.5C0.78125 11.4008 11.4008 0.78125 24.5 0.78125Z" fill="#00B1FF"/>
<path d="M24.5 11.5625C31.6426 11.5625 37.4375 17.3574 37.4375 24.5C37.4375 31.6426 31.6426 37.4375 24.5 37.4375C17.3574 37.4375 11.5625 31.6426 11.5625 24.5C11.5625 17.3574 17.3574 11.5625 24.5 11.5625Z" fill="#2B3B47"/>
<path d="M34.1895 11.5625C37.1678 11.5625 39.5801 13.9748 39.5801 16.9531C39.5801 19.9314 37.1678 22.3438 34.1895 22.3438C31.2111 22.3438 28.7988 19.9314 28.7988 16.9531C28.7988 13.9748 31.2246 11.5625 34.1895 11.5625Z" fill="#D4EDF6"/>
<path d="M37.06 21.4947C36.184 17.8156 33.7582 14.7564 30.4969 13.0449C29.4592 14.0287 28.7988 15.4033 28.7988 16.9531C28.7988 19.9314 31.2111 22.3438 34.1895 22.3438C35.2541 22.3303 36.2379 22.0203 37.06 21.4947Z" fill="#D6DBDE"/>
</svg>
