<svg width="1108" height="307" viewBox="0 0 1108 307" fill="none" xmlns="http://www.w3.org/2000/svg">
<path d="M301.904 227.256H307.856V221.304H313.712V215.448H362.192V221.304H368.144V227.256H374.096V281.688H368.144V287.64H362.192V293.688H313.712V287.64H307.856V281.688H301.904V227.256ZM314.768 280.728V286.584H361.136V280.728H367.088V228.312H361.136V222.36H314.768V228.312H308.816V280.728H314.768ZM400.88 215.448H455.216V221.304H461.168V227.256H467.12V252.024H461.168V257.976H455.216V263.928H407.792V293.688H400.88V215.448ZM454.16 256.92V250.968H460.112V228.312H454.16V222.36H407.792V256.92H454.16ZM499.856 215.448H560.144V222.36H506.768V293.688H499.856V215.448ZM589.904 280.728H595.856V268.824H601.712V256.92H607.664V239.16H613.616V227.256H619.568V215.448H632.432V227.256H638.384V239.16H644.24V256.92H650.192V268.824H656.144V280.728H662.096V293.688H655.088V281.688H649.136V275.736H602.768V281.688H596.816V293.688H589.904V280.728ZM643.28 268.824V257.976H637.328V240.216H631.376V228.312H620.528V240.216H614.672V257.976H608.72V268.824H643.28ZM691.856 215.448H698.768V250.968H745.136V215.448H752.144V293.688H745.136V257.976H698.768V293.688H691.856V215.448ZM787.664 256.92H793.52V250.968H805.232V245.112H810.896V228.312H805.232V222.36H782.864V228.312H777.2V240.216H770.192V227.256H776.144V221.304H782V215.448H806.096V221.304H811.952V227.256H817.808V246.072H811.952V252.024H806.096V257.976H794.576V275.736H787.664V256.92ZM787.664 280.728H800.432V293.688H787.664V280.728Z" fill="#00B1FF"/>
<path d="M113.88 5.952H120.792V41.472H143.448V35.616H155.352V29.664H161.304V17.76H167.16V5.952H174.168V18.816H168.216V30.72H162.264V36.576H156.408V42.528H144.504V47.424H150.456V53.376H156.408V59.328H162.264V65.28H168.216V71.232H174.168V77.088H180.12V84.192H173.112V78.144H167.16V72.192H161.304V66.24H155.352V60.384H149.4V54.432H143.448V48.48H120.792V84.192H113.88V5.952Z" fill="#00B1FF"/>
<path d="M206.904 71.232H212.856V59.328H218.712V47.424H224.664V29.664H230.616V17.76H236.568V5.952H249.432V17.76H255.384V29.664H261.24V47.424H267.192V59.328H273.144V71.232H279.096V84.192H272.088V72.192H266.136V66.24H219.768V72.192H213.816V84.192H206.904V71.232ZM260.28 59.328V48.48H254.328V30.72H248.376V18.816H237.528V30.72H231.672V48.48H225.72V59.328H260.28Z" fill="#00B1FF"/>
<path d="M305.88 5.952H312.792V41.472H335.448V35.616H347.352V29.664H353.304V17.76H359.16V5.952H366.168V18.816H360.216V30.72H354.264V36.576H348.408V42.528H336.504V47.424H342.456V53.376H348.408V59.328H354.264V65.28H360.216V71.232H366.168V77.088H372.12V84.192H365.112V78.144H359.16V72.192H353.304V66.24H347.352V60.384H341.4V54.432H335.448V48.48H312.792V84.192H305.88V5.952Z" fill="#00B1FF"/>
<path d="M518.616 6.912H512.664V0H519.672V5.952H536.376V0H543.384V6.912H537.432V12.864H518.616V6.912ZM500.856 11.808H507.768V71.232H512.664V59.328H518.616V53.376H524.568V41.472H530.424V35.616H536.376V23.712H542.328V17.76H548.28V11.808H561.144V84.192H554.136V18.816H549.24V24.768H543.384V36.576H537.432V42.528H531.48V54.432H525.528V60.384H519.672V72.192H513.72V78.144H507.768V84.192H500.856V11.808Z" fill="#00B1FF"/>
<path d="M671.448 12.864H641.88V5.952H708.12V12.864H678.456V84.192H671.448V12.864Z" fill="#00B1FF"/>
<path d="M737.88 5.952H792.216V11.808H798.168V17.76H804.12V36.576H798.168V42.528H792.216V47.424H798.168V53.376H804.12V72.192H798.168V78.144H792.216V84.192H737.88V5.952ZM791.16 41.472V35.616H797.112V18.816H791.16V12.864H744.792V41.472H791.16ZM791.16 77.088V71.232H797.112V54.432H791.16V48.48H744.792V77.088H791.16Z" fill="#00B1FF"/>
<path d="M950.616 6.912H944.664V0H951.672V5.952H968.376V0H975.384V6.912H969.432V12.864H950.616V6.912ZM932.856 11.808H939.768V71.232H944.664V59.328H950.616V53.376H956.568V41.472H962.424V35.616H968.376V23.712H974.328V17.76H980.28V11.808H993.144V84.192H986.136V18.816H981.24V24.768H975.384V36.576H969.432V42.528H963.48V54.432H957.528V60.384H951.672V72.192H945.72V78.144H939.768V84.192H932.856V11.808Z" fill="#00B1FF"/>
<path d="M17.8799 113.76H23.7359V107.808H29.6879V101.952H72.2159V107.808H78.1679V113.76H84.1199V126.72H77.1119V114.816H71.1599V108.864H30.7439V114.816H24.7919V167.232H30.7439V173.088H71.1599V167.232H77.1119V149.376H84.1199V168.192H78.1679V174.144H72.2159V180.192H29.6879V174.144H23.7359V168.192H17.8799V113.76Z" fill="#00B1FF"/>
<path d="M110.904 167.232H116.856V155.328H122.712V143.424H128.664V125.664H134.616V113.76H140.568V101.952H153.432V113.76H159.384V125.664H165.24V143.424H171.192V155.328H177.144V167.232H183.096V180.192H176.088V168.192H170.136V162.24H123.768V168.192H117.816V180.192H110.904V167.232ZM164.28 155.328V144.48H158.328V126.72H152.376V114.816H141.528V126.72H135.672V144.48H129.72V155.328H164.28Z" fill="#00B1FF"/>
<path d="M203.928 101.952H210.84V107.808H216.792V119.712H222.744V131.616H228.696V143.424H234.552V155.328H240.504V167.232H245.4V155.328H251.352V143.424H257.304V131.616H263.16V119.712H269.112V107.808H275.064V101.952H281.976V180.192H275.064V120.768H270.168V132.576H264.216V144.48H258.264V156.384H252.408V168.192H246.456V180.192H239.448V168.192H233.592V156.384H227.64V144.48H221.688V132.576H215.736V120.768H210.84V180.192H203.928V101.952Z" fill="#00B1FF"/>
<path d="M299.928 101.952H306.84V131.616H348.408V137.472H354.264V143.424H360.216V168.192H354.264V174.144H348.408V180.192H299.928V101.952ZM371.064 101.952H377.976V180.192H371.064V101.952ZM347.352 173.088V167.232H353.304V144.48H347.352V138.528H306.84V173.088H347.352Z" fill="#00B1FF"/>
<path d="M422.616 102.912H416.664V96H423.672V101.952H440.376V96H447.384V102.912H441.432V108.864H422.616V102.912ZM404.856 107.808H411.768V167.232H416.664V155.328H422.616V149.376H428.568V137.472H434.424V131.616H440.376V119.712H446.328V113.76H452.28V107.808H465.144V180.192H458.136V114.816H453.24V120.768H447.384V132.576H441.432V138.528H435.48V150.432H429.528V156.384H423.672V168.192H417.72V174.144H411.768V180.192H404.856V107.808Z" fill="#00B1FF"/>
<path d="M545.88 101.952H600.216V107.808H606.168V113.76H612.12V132.576H606.168V138.528H600.216V143.424H606.168V149.376H612.12V168.192H606.168V174.144H600.216V180.192H545.88V101.952ZM599.16 137.472V131.616H605.112V114.816H599.16V108.864H552.792V137.472H599.16ZM599.16 173.088V167.232H605.112V150.432H599.16V144.48H552.792V173.088H599.16Z" fill="#00B1FF"/>
<path d="M638.904 167.232H644.856V155.328H650.712V143.424H656.664V125.664H662.616V113.76H668.568V101.952H681.432V113.76H687.384V125.664H693.24V143.424H699.192V155.328H705.144V167.232H711.096V180.192H704.088V168.192H698.136V162.24H651.768V168.192H645.816V180.192H638.904V167.232ZM692.28 155.328V144.48H686.328V126.72H680.376V114.816H669.528V126.72H663.672V144.48H657.72V155.328H692.28Z" fill="#00B1FF"/>
<path d="M731.928 167.232H737.88V155.328H743.736V143.424H749.688V138.528H743.736V132.576H737.88V120.768H731.928V101.952H738.84V119.712H744.792V131.616H750.744V137.472H767.448V101.952H774.456V137.472H791.16V131.616H797.112V119.712H803.064V101.952H809.976V120.768H804.12V132.576H798.168V138.528H792.216V143.424H798.168V155.328H804.12V167.232H809.976V180.192H803.064V168.192H797.112V156.384H791.16V144.48H774.456V180.192H767.448V144.48H750.744V156.384H744.792V168.192H738.84V180.192H731.928V167.232Z" fill="#00B1FF"/>
<path d="M836.856 101.952H843.768V137.472H890.136V101.952H897.144V180.192H890.136V144.48H843.768V180.192H836.856V101.952Z" fill="#00B1FF"/>
<path d="M923.928 101.952H930.84V131.616H972.408V137.472H978.264V143.424H984.216V168.192H978.264V174.144H972.408V180.192H923.928V101.952ZM995.064 101.952H1001.98V180.192H995.064V101.952ZM971.352 173.088V167.232H977.304V144.48H971.352V138.528H930.84V173.088H971.352Z" fill="#00B1FF"/>
<path d="M1046.62 102.912H1040.66V96H1047.67V101.952H1064.38V96H1071.38V102.912H1065.43V108.864H1046.62V102.912ZM1028.86 107.808H1035.77V167.232H1040.66V155.328H1046.62V149.376H1052.57V137.472H1058.42V131.616H1064.38V119.712H1070.33V113.76H1076.28V107.808H1089.14V180.192H1082.14V114.816H1077.24V120.768H1071.38V132.576H1065.43V138.528H1059.48V150.432H1053.53V156.384H1047.67V168.192H1041.72V174.144H1035.77V180.192H1028.86V107.808Z" fill="#00B1FF"/>
<path d="M412.333 13.504H448.667V22.6469H412.333V13.504ZM394.167 31.7897V22.6469H412.333V31.7897H394.167ZM385.083 40.9326V31.7897H394.167V40.9326H385.083ZM385.083 50.0755V40.9326H376V50.0755H385.083ZM394.167 59.2183H385.083V50.0755H394.167V59.2183ZM412.333 68.3612H394.167V59.2183H412.333V68.3612ZM448.667 68.3612V77.504H412.333V68.3612H448.667ZM466.833 59.2183V68.3612H448.667V59.2183H466.833ZM475.917 50.0755V59.2183H466.833V50.0755H475.917ZM475.917 40.9326H485V50.0755H475.917V40.9326ZM466.833 31.7897H475.917V40.9326H466.833V31.7897ZM466.833 31.7897V22.6469H448.667V31.7897H466.833ZM421.417 36.3612H439.583V54.6469H421.417V36.3612Z" fill="#41B3FB"/>
<path d="M850.333 13.504H886.667V22.6469H850.333V13.504ZM832.167 31.7897V22.6469H850.333V31.7897H832.167ZM823.083 40.9326V31.7897H832.167V40.9326H823.083ZM823.083 50.0755V40.9326H814V50.0755H823.083ZM832.167 59.2183H823.083V50.0755H832.167V59.2183ZM850.333 68.3612H832.167V59.2183H850.333V68.3612ZM886.667 68.3612V77.504H850.333V68.3612H886.667ZM904.833 59.2183V68.3612H886.667V59.2183H904.833ZM913.917 50.0755V59.2183H904.833V50.0755H913.917ZM913.917 40.9326H923V50.0755H913.917V40.9326ZM904.833 31.7897H913.917V40.9326H904.833V31.7897ZM904.833 31.7897V22.6469H886.667V31.7897H904.833ZM859.417 36.3612H877.583V54.6469H859.417V36.3612Z" fill="#41B3FB"/>
<path d="M328 236.504H347V241.075H328V236.504ZM318.5 245.647V241.075H328V245.647H318.5ZM313.75 250.218V245.647H318.5V250.218H313.75ZM313.75 254.79V250.218H309V254.79H313.75ZM318.5 259.361H313.75V254.79H318.5V259.361ZM328 263.933H318.5V259.361H328V263.933ZM347 263.933V268.504H328V263.933H347ZM356.5 259.361V263.933H347V259.361H356.5ZM361.25 254.79V259.361H356.5V254.79H361.25ZM361.25 250.218H366V254.79H361.25V250.218ZM356.5 245.647H361.25V250.218H356.5V245.647ZM356.5 245.647V241.075H347V245.647H356.5ZM332.75 247.933H342.25V257.075H332.75V247.933Z" fill="#41B3FB"/>
</svg>
